<svg id="Layer_1" enable-background="new 0 0 511.998 511.998" height="512" viewBox="0 0 511.998 511.998" width="512" xmlns="http://www.w3.org/2000/svg"><g><g><g clip-rule="evenodd" fill-rule="evenodd"><path d="m418.651 122.549c8.034 8.034 22.381 9.075 29.217 0l21.967-29.163 21.967-29.163c6.836-9.075 8.035-21.182 0-29.217l-14.81-14.81c-8.035-8.035-20.141-6.836-29.217 0l-29.163 21.967-29.163 21.967c-9.076 6.836-8.034 21.183 0 29.217z" fill="#ffbecb"/><path d="m254.908 297.449 163.743-174.9-29.202-29.202-174.9 163.743-88.891 83.22 46.029 46.029z" fill="#fff3db"/><path d="m342.145 286.542c-22.466 6.02-58.092 19.808-87.237 10.907l-83.22 88.89 5.956 5.956c8.035 8.035 8.035 21.182 0 29.217-8.035 8.034-21.182 8.034-29.217 0l-57.94-57.94c-8.035-8.035-8.035-21.182 0-29.217s21.182-8.035 29.217 0l5.955 5.955 88.891-83.22c-8.9-29.145 4.887-64.771 10.907-87.237 8.14-30.378-28.543-49.604-66.341 15.864-45.028 77.989-61.306 42.346-111.607 92.647-55.375 55.375-46.843 122.217 8.533 177.593s122.217 63.908 177.593 8.533c50.301-50.3 14.658-66.579 92.647-111.607 65.466-37.798 46.241-74.481 15.863-66.341z" fill="#ffbecb"/><path d="m171.687 386.339-46.029-46.029-5.955-5.955c-8.035-8.035-21.182-8.035-29.217 0s-8.035 21.182 0 29.217l57.94 57.94c8.035 8.035 21.182 8.035 29.217 0s8.035-21.182 0-29.217z" fill="#fff"/></g><g><path d="m89.455 432.543c-5.523 0-10.004-4.477-10.004-10s4.474-10 9.997-10h.007c5.523 0 10 4.477 10 10s-4.477 10-10 10z" fill="#fff"/></g><g><path d="m119.456 462.544c-5.523 0-10.004-4.477-10.004-10s4.474-10 9.997-10h.007c5.523 0 10 4.477 10 10s-4.477 10-10 10z" fill="#fff"/></g></g><path d="m509.069 67.348-4.752-4.752c5.469-12.207 3.619-25.598-5.444-34.661l-14.811-14.811c-9.064-9.063-22.455-10.912-34.661-5.444l-4.752-4.752c-3.905-3.905-10.237-3.905-14.143 0s-3.905 10.237 0 14.143l2.06 2.061-13.03 9.815-4.051-4.051c-3.904-3.905-10.237-3.905-14.142 0s-3.906 10.237 0 14.142l2.061 2.061-13.03 9.815-4.051-4.051c-3.905-3.905-10.237-3.905-14.143 0s-3.905 10.237 0 14.143l3.882 3.882c-1.673 3.248-2.69 6.893-2.963 10.795-.39 5.572.781 11.217 3.239 16.239l-154.713 144.845c-.194-17.609 5.398-36.573 10.119-52.566 1.229-4.165 2.391-8.099 3.371-11.759 4.561-17.02-1.792-32.858-15.449-38.515-16.464-6.82-43.29 1.891-69.211 46.791-24.654 42.701-39.034 48.536-57.24 55.924-14.298 5.802-30.503 12.378-52.778 34.652-28.687 28.686-42.577 62.077-40.17 96.563 2.282 32.682 19.123 65.591 48.702 95.171 29.58 29.58 62.49 46.421 95.171 48.703 2.558.178 5.104.267 7.648.267 31.76-.001 62.356-13.877 88.916-40.437 22.274-22.275 28.851-38.48 34.652-52.778 7.388-18.206 13.223-32.586 55.923-57.239 44.898-25.922 53.609-52.749 46.791-69.211-5.657-13.657-21.497-20.012-38.516-15.45-3.659.98-7.591 2.142-11.755 3.37-15.993 4.721-34.959 10.315-52.57 10.12l144.848-154.717c4.385 2.146 9.244 3.315 14.116 3.315.708 0 1.416-.024 2.122-.074 3.901-.273 7.547-1.291 10.794-2.963l3.882 3.882c1.953 1.953 4.512 2.929 7.071 2.929s5.119-.976 7.071-2.929c3.905-3.905 3.905-10.237 0-14.143l-4.051-4.051 9.815-13.03 2.061 2.061c1.953 1.953 4.512 2.929 7.071 2.929s5.119-.977 7.071-2.929c3.905-3.905 3.905-10.237 0-14.142l-4.051-4.05 9.815-13.03 2.06 2.06c1.953 1.953 4.512 2.929 7.071 2.929s5.119-.976 7.071-2.929c3.908-3.905 3.908-10.237.003-14.143zm-337.618 304.612-31.413-31.413 249.182-233.287 15.518 15.518zm-.879 27.405c4.156 4.156 4.156 10.919 0 15.075-1.997 1.998-4.674 3.097-7.537 3.097s-5.54-1.1-7.537-3.097l-57.939-57.939c-4.156-4.156-4.156-10.919 0-15.075 1.997-1.997 4.674-3.097 7.537-3.097s5.54 1.1 7.537 3.098zm162.891-99.93c4.039-1.192 7.854-2.319 11.27-3.234 7.045-1.888 13.157-.331 14.861 3.785 2.972 7.174-4.779 24.876-38.313 44.237-48.65 28.088-56.328 47.008-64.456 67.04-5.336 13.15-10.854 26.748-30.262 46.156-24.821 24.82-52.089 36.375-81.028 34.36-27.801-1.941-56.302-16.773-82.422-42.894-54.649-54.648-57.759-114.224-8.533-163.45 19.408-19.408 33.006-24.926 46.156-30.262 20.031-8.128 38.952-15.806 67.04-64.456 19.36-33.534 37.061-41.284 44.237-38.313 4.116 1.705 5.672 7.816 3.785 14.861-.916 3.416-2.042 7.233-3.235 11.273-6.212 21.042-14.584 49.436-9.156 75.285l-77.541 72.595c-5.662-5.223-12.987-8.089-20.771-8.089-8.206 0-15.905 3.181-21.68 8.955-11.954 11.954-11.954 31.405 0 43.359l57.939 57.939c5.977 5.977 13.828 8.965 21.68 8.965 7.851 0 15.703-2.989 21.68-8.966 11.656-11.657 11.94-30.437.865-42.449l72.596-77.542c25.851 5.429 54.247-2.944 75.288-9.155zm101.455-180.489c-3.249.231-6.862-1.133-9.197-3.468l-29.201-29.201c-2.334-2.335-3.696-5.944-3.468-9.196.154-2.202.966-3.872 2.414-4.962l58.325-43.934c2.797-2.106 6.269-3.562 9.557-3.562 2.402 0 4.705.777 6.573 2.645l14.811 14.811c4.426 4.425 2.729 11.29-.917 16.129l-43.935 58.326c-1.091 1.446-2.76 2.258-4.962 2.412z" fill="#ff5d7d"/></g></svg>